<svg xmlns="http://www.w3.org/2000/svg" xmlns:xlink="http://www.w3.org/1999/xlink" viewBox="0 0 142 80"><defs><mask id="a" x="62.61" y="0.45" width="16.59" height="10.62" maskUnits="userSpaceOnUse"><polygon points="62.61 0.45 79.2 0.45 79.2 11.06 62.61 11.06 62.61 0.45" style="fill:#fff;fill-rule:evenodd"/></mask></defs><polygon points="0 79.78 3.3 79.78 3.3 62.51 0 62.51 0 79.78" style="fill:#111111;fill-rule:evenodd"/><polygon points="112.28 79.78 115.58 79.78 115.58 62.51 112.28 62.51 112.28 79.78" style="fill:#111111;fill-rule:evenodd"/><polygon points="28.26 62.51 27.48 62.51 22.29 72.97 17.1 62.51 16.32 62.51 13.21 62.51 13.21 79.78 16.32 79.78 16.32 68.02 22.29 79.78 28.26 68.02 28.26 79.78 31.37 79.78 31.37 62.51 28.26 62.51" style="fill:#111111;fill-rule:evenodd"/><path d="M51.23,69.71H44V65h7.25a2.37,2.37,0,0,1,0,4.74M51.8,62H40.7V79.78H44V72.56H51.8A5.28,5.28,0,0,0,51.8,62" style="fill:#111111;fill-rule:evenodd"/><path d="M90.78,65H98a2.37,2.37,0,0,1,0,4.74H90.78Zm13,14.81-4.74-7.25A5.29,5.29,0,0,0,98.53,62H87.44V79.78h3.33V72.56H95.5l4.72,7.22Z" style="fill:#111111;fill-rule:evenodd"/><polygon points="79.65 64.81 79.65 62.02 67.42 62.02 64.08 62.02 64.08 79.78 67.42 79.78 79.65 79.78 79.65 76.99 67.42 76.99 67.42 72 75.47 72 75.47 69.21 67.42 69.21 67.42 64.81 79.65 64.81" style="fill:#111111;fill-rule:evenodd"/><path d="M132.52,76.63a5.76,5.76,0,1,1,6.11-5.75,5.94,5.94,0,0,1-6.11,5.75m0-14.63c-5.22,0-9.45,4-9.45,8.88A9.46,9.46,0,1,0,132.52,62" style="fill:#111111;fill-rule:evenodd"/><polygon points="64.69 20.79 43.52 20.79 43.52 29.17 61.85 29.17 64.69 20.79" style="fill:#006cb5;fill-rule:evenodd"/><polygon points="77.13 20.79 79.97 29.17 98.3 29.17 98.3 20.79 77.13 20.79" style="fill:#006cb5;fill-rule:evenodd"/><polygon points="67.59 12.21 51.51 12.21 51.51 17.72 65.72 17.72 67.59 12.21" style="fill:#006cb5;fill-rule:evenodd"/><polygon points="74.21 12.21 76.08 17.72 90.3 17.72 90.3 12.21 74.21 12.21" style="fill:#006cb5;fill-rule:evenodd"/><polygon points="20 45.48 20 56.31 52.66 56.31 56.32 45.48 20 45.48" style="fill:#006cb5;fill-rule:evenodd"/><polygon points="85.5 45.48 89.17 56.31 121.82 56.31 121.82 45.48 85.5 45.48" style="fill:#006cb5;fill-rule:evenodd"/><g style="mask:url(#a)"><path d="M77.6.45H64.2A1.59,1.59,0,0,0,62.61,2v9h5.06V5.76h6.62v5.3H79.2V2A1.59,1.59,0,0,0,77.6.45" style="fill:#006cb5;fill-rule:evenodd"/></g><polygon points="60.81 32.23 32.63 32.23 32.63 41.62 57.63 41.62 60.81 32.23" style="fill:#006cb5;fill-rule:evenodd"/><polygon points="81.01 32.23 84.19 41.62 109.2 41.62 109.2 32.23 81.01 32.23" style="fill:#006cb5;fill-rule:evenodd"/><path d="M69.32,34.62,69.78,26h2.27l.45,8.67Zm1-17.65H71.5l.24,4.51H70.08Zm2.52-4.76H71.32l.16,3.1H70.34l.16-3.1H69L57.64,56.31H68l.83-16.6H73l.83,16.6H84.18Z" style="fill:#bebebe;fill-rule:evenodd"/></svg>